<?xml version="1.0" encoding="UTF-8"?>
<svg width="217px" height="44px" viewBox="0 0 217 44" version="1.1" xmlns="http://www.w3.org/2000/svg" xmlns:xlink="http://www.w3.org/1999/xlink">
    <g id="wp-dev-lib-logo" stroke="none" stroke-width="1" fill="none" fill-rule="evenodd">
        <path d="M30.8925781,14.6171875 L28.4316406,31 L23.9316406,31 L22.2089844,21.1386719 L20.4511719,31 L15.9511719,31 L13.4902344,14.6171875 L17.0585938,14.6171875 L18.5,25.5683594 L20.2578125,14.6171875 L24.1074219,14.6171875 L25.8828125,25.5683594 L27.3242188,14.6171875 L30.8925781,14.6171875 Z M34.5136719,14.6171875 L38.1523438,14.6171875 L38.1523438,16.09375 C38.8437535,15.4726531 39.5439418,15.0068375 40.2529297,14.6962891 C40.9619176,14.3857406 41.7734329,14.2304688 42.6875,14.2304688 C43.7421928,14.2304688 44.7206986,14.4443338 45.6230469,14.8720703 C46.5253951,15.2998068 47.2988249,15.8915978 47.9433594,16.6474609 C48.5878938,17.4033241 49.0976544,18.3115181 49.4726562,19.3720703 C49.8476581,20.4326225 50.0351562,21.5839782 50.0351562,22.8261719 C50.0351562,24.0800844 49.8476581,25.2343697 49.4726562,26.2890625 C49.0976544,27.3437553 48.5878938,28.2490197 47.9433594,29.0048828 C47.2988249,29.760746 46.5253951,30.3496073 45.6230469,30.7714844 C44.7206986,31.1933615 43.7421928,31.4042969 42.6875,31.4042969 C41.7734329,31.4042969 40.9619176,31.240236 40.2529297,30.9121094 C39.5439418,30.5839827 38.8437535,30.1093781 38.1523438,29.4882812 L38.1523438,37.5566406 L34.5136719,37.5566406 L34.5136719,14.6171875 Z M38.1523438,26.6054688 C38.5859397,27.0859399 39.1396451,27.4580065 39.8134766,27.7216797 C40.4873081,27.9853529 41.1347625,28.1171875 41.7558594,28.1171875 C43.12696,28.1171875 44.2431598,27.6308642 45.1044922,26.6582031 C45.9658246,25.685542 46.3964844,24.408211 46.3964844,22.8261719 C46.3964844,21.2441327 45.9658246,19.9609424 45.1044922,18.9765625 C44.2431598,17.9921826 43.12696,17.5 41.7558594,17.5 C41.1347625,17.5 40.4873081,17.6259753 39.8134766,17.8779297 C39.1396451,18.1298841 38.5859397,18.4960913 38.1523438,18.9765625 L38.1523438,26.6054688 Z M53.3046875,24.2324219 L53.3046875,20.9628906 L69.6875,20.9628906 L69.6875,24.2324219 L53.3046875,24.2324219 Z M88.4785156,31 L84.8398438,31 L84.8398438,29.4882812 C84.1367152,30.1093781 83.4277379,30.5839827 82.7128906,30.9121094 C81.9980433,31.240236 81.1835983,31.4042969 80.2695312,31.4042969 C79.2148385,31.4042969 78.2363326,31.1933615 77.3339844,30.7714844 C76.4316361,30.3496073 75.6552767,29.760746 75.0048828,29.0048828 C74.3544889,28.2490197 73.8447284,27.3437553 73.4755859,26.2890625 C73.1064435,25.2343697 72.921875,24.0800844 72.921875,22.8261719 C72.921875,21.5839782 73.1064435,20.4326225 73.4755859,19.3720703 C73.8447284,18.3115181 74.3544889,17.4033241 75.0048828,16.6474609 C75.6552767,15.8915978 76.4316361,15.2998068 77.3339844,14.8720703 C78.2363326,14.4443338 79.2148385,14.2304688 80.2695312,14.2304688 C81.1835983,14.2304688 81.9980433,14.3857406 82.7128906,14.6962891 C83.4277379,15.0068375 84.1367152,15.4726531 84.8398438,16.09375 L84.8398438,11.3476562 L81.6757812,11.3476562 L81.6757812,8.06054688 L88.4785156,8.06054688 L88.4785156,31 Z M84.8398438,18.9765625 C84.4062478,18.4960913 83.8466831,18.1298841 83.1611328,17.8779297 C82.4755825,17.6259753 81.8222687,17.5 81.2011719,17.5 C79.8300713,17.5 78.7138715,17.9921826 77.8525391,18.9765625 C76.9912066,19.9609424 76.5605469,21.2441327 76.5605469,22.8261719 C76.5605469,24.408211 76.9912066,25.685542 77.8525391,26.6582031 C78.7138715,27.6308642 79.8300713,28.1171875 81.2011719,28.1171875 C81.8222687,28.1171875 82.4755825,27.9912122 83.1611328,27.7392578 C83.8466831,27.4873034 84.4062478,27.1210962 84.8398438,26.640625 L84.8398438,18.9765625 Z M95.9492188,24.1972656 C96.1250009,25.3222713 96.6611283,26.2568322 97.5576172,27.0009766 C98.454106,27.7451209 99.6581956,28.1171875 101.169922,28.1171875 C102.353522,28.1171875 103.381832,27.932619 104.254883,27.5634766 C105.127934,27.1943341 105.880856,26.7050812 106.513672,26.0957031 L108.376953,28.6621094 C107.32226,29.7168021 106.206061,30.4374981 105.02832,30.8242187 C103.85058,31.2109394 102.56446,31.4042969 101.169922,31.4042969 C99.9042905,31.4042969 98.7265679,31.1933615 97.6367188,30.7714844 C96.5468696,30.3496073 95.6035196,29.760746 94.8066406,29.0048828 C94.0097616,28.2490197 93.3857444,27.3496146 92.9345703,26.3066406 C92.4833962,25.2636667 92.2578125,24.103522 92.2578125,22.8261719 C92.2578125,21.5839782 92.4658182,20.4384818 92.8818359,19.3896484 C93.2978536,18.3408151 93.8837853,17.432621 94.6396484,16.6650391 C95.3955116,15.8974571 96.300776,15.2998068 97.3554688,14.8720703 C98.4101615,14.4443338 99.5761655,14.2304688 100.853516,14.2304688 C102.177741,14.2304688 103.378901,14.4560524 104.457031,14.9072266 C105.535162,15.3584007 106.458004,16.0117145 107.225586,16.8671875 C107.993168,17.7226605 108.593748,18.7685485 109.027344,20.0048828 C109.46094,21.2412171 109.677734,22.6386641 109.677734,24.1972656 L95.9492188,24.1972656 Z M105.564453,20.9980469 C105.376952,19.9433541 104.832036,19.0966829 103.929688,18.4580078 C103.027339,17.8193327 102.001959,17.5 100.853516,17.5 C99.7050724,17.5 98.6738327,17.8193327 97.7597656,18.4580078 C96.8456986,19.0966829 96.2949228,19.9433541 96.1074219,20.9980469 L105.564453,20.9980469 Z M127.644531,14.6171875 L121.597656,31 L117.308594,31 L111.261719,14.6171875 L115.146484,14.6171875 L119.470703,27.0097656 L123.759766,14.6171875 L127.644531,14.6171875 Z M129.914063,24.2324219 L129.914063,20.9628906 L146.296875,20.9628906 L146.296875,24.2324219 L129.914063,24.2324219 Z M162.347656,31 L151.34375,31 L151.34375,27.7304688 L154.929688,27.7304688 L154.929688,11.3476562 L151.34375,11.3476562 L151.34375,8.06054688 L158.568359,8.06054688 L158.568359,27.7304688 L162.347656,27.7304688 L162.347656,31 Z M176.625,12.4902344 L172.195312,12.4902344 L172.195312,8.06054688 L176.625,8.06054688 L176.625,12.4902344 Z M179.964844,31 L168.960938,31 L168.960938,27.7304688 L172.582031,27.7304688 L172.582031,17.9042969 L168.960938,17.9042969 L168.960938,14.6171875 L176.220703,14.6171875 L176.220703,27.7304688 L179.964844,27.7304688 L179.964844,31 Z M186.732422,8.06054688 L190.371094,8.06054688 L190.371094,16.09375 C191.062503,15.4726531 191.762692,15.0068375 192.47168,14.6962891 C193.180668,14.3857406 193.992183,14.2304688 194.90625,14.2304688 C195.960943,14.2304688 196.939449,14.4443338 197.841797,14.8720703 C198.744145,15.2998068 199.517575,15.8915978 200.162109,16.6474609 C200.806644,17.4033241 201.316404,18.3115181 201.691406,19.3720703 C202.066408,20.4326225 202.253906,21.5839782 202.253906,22.8261719 C202.253906,24.0800844 202.066408,25.2343697 201.691406,26.2890625 C201.316404,27.3437553 200.806644,28.2490197 200.162109,29.0048828 C199.517575,29.760746 198.744145,30.3496073 197.841797,30.7714844 C196.939449,31.1933615 195.960943,31.4042969 194.90625,31.4042969 C193.992183,31.4042969 193.180668,31.240236 192.47168,30.9121094 C191.762692,30.5839827 191.062503,30.1093781 190.371094,29.4882812 L190.371094,31 L186.732422,31 L186.732422,8.06054688 Z M190.371094,26.640625 C190.80469,27.1210962 191.358395,27.4873034 192.032227,27.7392578 C192.706058,27.9912122 193.353513,28.1171875 193.974609,28.1171875 C195.34571,28.1171875 196.46191,27.6308642 197.323242,26.6582031 C198.184575,25.685542 198.615234,24.408211 198.615234,22.8261719 C198.615234,21.2441327 198.184575,19.9609424 197.323242,18.9765625 C196.46191,17.9921826 195.34571,17.5 193.974609,17.5 C193.353513,17.5 192.706058,17.6259753 192.032227,17.8779297 C191.358395,18.1298841 190.80469,18.4960913 190.371094,18.9765625 L190.371094,26.640625 Z" id="wp-dev-lib" fill="#000000"></path>
        <rect id="Rectangle" stroke="#000000" stroke-width="3" x="1.5" y="1.5" width="214" height="41" rx="4"></rect>
    </g>
</svg>
